<svg width="194" height="32" viewBox="0 0 194 32" fill="none" xmlns="http://www.w3.org/2000/svg">
<path fill-rule="evenodd" clip-rule="evenodd" d="M36 0L39 2.99999V0H39V32H29.9999L27 29.0001V0H36Z" fill="#222126"/>
<path fill-rule="evenodd" clip-rule="evenodd" d="M12 16H24V29H12L9 32H0V20H12V16Z" fill="#222126"/>
<path fill-rule="evenodd" clip-rule="evenodd" d="M24 12H12V16H0V3L12 3L15 0H24V12Z" fill="#222126"/>
<path d="M64.6449 11C64.2226 8.87634 62.5071 6.13441 58.0996 6.13441C54.6158 6.13441 51.739 8.76882 51.739 11.9677C51.739 14.8172 53.6392 16.7258 56.4896 17.3172L59.1289 17.8817C60.7388 18.2312 61.6361 19.2258 61.6361 20.4624C61.6361 21.9409 60.4749 23.0968 58.2315 23.0968C55.5395 23.0968 54.1407 21.2688 53.9559 19.2796L51 20.1398C51.2903 22.8817 53.4809 26 58.2315 26C62.5071 26 64.856 23.1774 64.856 20.2204C64.856 17.5323 63.0877 15.4086 59.7887 14.7366L57.0966 14.172C55.6451 13.8495 54.9061 12.9355 54.9061 11.7258C54.9061 10.2742 56.2257 8.98387 58.1259 8.98387C60.6332 8.98387 61.6097 10.7312 61.7945 11.914L64.6449 11Z" fill="#222126"/>
<path d="M71.7096 8.5H68.9384V10.4624C68.9384 11.6183 68.9384 12.5054 68.9384 12.5054C67.566 12.5054 66.2991 12.5054 66.2991 12.5054V15.2742H68.6744V21.8602C68.6744 24.3065 70.1524 25.7581 72.5277 25.7581C73.6362 25.7581 74.2168 25.543 74.4016 25.4624V22.8817C74.2696 22.9086 73.7682 22.9892 73.3459 22.9892C72.211 22.9892 71.7096 22.5054 71.7096 21.3495V15.2742H74.3752V12.5054H71.7096V8.5Z" fill="#222126"/>
<path d="M76.7548 22.0484C76.7548 24.1183 78.4176 26 81.1096 26C83.1946 26 84.4614 24.9247 85.0684 23.9301C85.0684 24.9785 85.174 25.5161 85.2004 25.5968H88.0508C88.0244 25.4624 87.8924 24.6828 87.8924 23.5V16.9946C87.8924 14.3871 86.3881 12.1022 82.4292 12.1022C79.2621 12.1022 77.2563 14.1183 77.0188 16.3763L79.8164 17.0215C79.9483 15.7043 80.8457 14.6559 82.4556 14.6559C84.1447 14.6559 84.8837 15.543 84.8837 16.6452C84.8837 17.1021 84.6726 17.4785 83.9336 17.586L80.6345 18.0968C78.444 18.4194 76.7548 19.7097 76.7548 22.0484ZM81.6902 23.5538C80.4762 23.5538 79.8164 22.7473 79.8164 21.8602C79.8164 20.7849 80.5817 20.2473 81.5319 20.086L84.8837 19.5753V20.1667C84.8837 22.7204 83.4057 23.5538 81.6902 23.5538Z" fill="#222126"/>
<path d="M103.242 17.6129C103.347 16.2151 104.456 14.7097 106.382 14.7097C108.494 14.7097 109.497 16.0806 109.549 17.6129H103.242ZM109.893 21.0269C109.47 22.3172 108.52 23.3118 106.673 23.3118C104.772 23.3118 103.242 21.8871 103.162 19.8979H112.558C112.585 19.8441 112.637 19.414 112.637 18.9032C112.637 14.7634 110.315 12.1022 106.356 12.1022C103.11 12.1022 100.101 14.8441 100.101 18.9839C100.101 23.4194 103.189 26 106.673 26C109.761 26 111.793 24.1452 112.479 21.8602L109.893 21.0269Z" fill="#222126"/>
<path d="M121.211 23.2043C119.337 23.2043 117.622 21.7527 117.622 19.0376C117.622 16.3226 119.337 14.9247 121.211 14.9247C123.111 14.9247 124.8 16.3226 124.8 19.0376C124.8 21.7796 123.111 23.2043 121.211 23.2043ZM121.211 12.1022C117.384 12.1022 114.56 15.0323 114.56 19.0376C114.56 23.0699 117.384 26 121.211 26C125.064 26 127.888 23.0699 127.888 19.0376C127.888 15.0323 125.064 12.1022 121.211 12.1022Z" fill="#222126"/>
<path d="M136.548 8.7957C137.128 8.7957 137.471 8.87634 137.656 8.93011V6.26882C137.445 6.16129 136.812 6 136.046 6C133.407 6 131.559 7.77419 131.559 10.7043V12.5054H129.316V15.2204H131.559V25.5968H134.647V15.2204H137.63V12.5054H134.647V10.7849C134.647 9.17204 135.729 8.7957 136.548 8.7957Z" fill="#222126"/>
<path d="M142.449 16.0538C142.449 11.457 145.564 9.17204 148.704 9.17204C151.871 9.17204 154.986 11.457 154.986 16.0538C154.986 20.6505 151.871 22.9355 148.704 22.9355C145.564 22.9355 142.449 20.6505 142.449 16.0538ZM139.203 16.0538C139.203 22.3172 143.795 26 148.704 26C153.613 26 158.232 22.3172 158.232 16.0538C158.232 9.8172 153.613 6.13441 148.704 6.13441C143.795 6.13441 139.203 9.8172 139.203 16.0538Z" fill="#222126"/>
<path d="M164.373 18.043C164.373 16.3226 165.297 14.9516 167.039 14.9516C168.965 14.9516 169.678 16.2419 169.678 17.8548V25.5968H172.739V17.3172C172.739 14.4409 171.235 12.129 168.094 12.129C166.669 12.129 165.138 12.7473 164.294 14.2527V12.5054H161.312V25.5968H164.373V18.043Z" fill="#222126"/>
<path d="M178.604 17.6129C178.71 16.2151 179.818 14.7097 181.745 14.7097C183.856 14.7097 184.859 16.0806 184.912 17.6129H178.604ZM185.255 21.0269C184.833 22.3172 183.883 23.3118 182.035 23.3118C180.135 23.3118 178.604 21.8871 178.525 19.8979H187.921C187.947 19.8441 188 19.414 188 18.9032C188 14.7634 185.677 12.1022 181.719 12.1022C178.472 12.1022 175.464 14.8441 175.464 18.9839C175.464 23.4194 178.552 26 182.035 26C185.123 26 187.155 24.1452 187.842 21.8602L185.255 21.0269Z" fill="#222126"/>
<path d="M95.43 8.49999H92.6588V10.4624C92.6588 11.6183 92.6588 12.5054 92.6588 12.5054C91.2864 12.5054 90.0196 12.5054 90.0196 12.5054V15.2742H92.3949V21.8602C92.3949 24.3064 93.8729 25.7581 96.2482 25.7581C97.3567 25.7581 97.9373 25.543 98.1221 25.4624V22.8817C97.9901 22.9086 97.4886 22.9892 97.0664 22.9892C95.9315 22.9892 95.43 22.5054 95.43 21.3495V15.2742H98.0957V12.5054H95.43V8.49999Z" fill="#222126"/>
</svg>
