<svg width="201" height="13" viewBox="0 0 201 13" fill="none" xmlns="http://www.w3.org/2000/svg">
<path d="M0.328457 4.23537C0.328457 5.11702 0.605053 5.87766 1.07181 6.34441C2.09176 7.36436 4.26995 7.79654 8.69548 7.91755C12.8617 8.03856 13.3285 8.22872 13.6051 8.50532C13.7434 8.64362 13.7952 8.7992 13.7952 9.02394C13.7952 9.2141 13.7606 9.40425 13.5878 9.57713C13.0864 10.0785 11.254 10.1649 8.64362 10.1649C5.65293 10.1649 1.78059 9.42154 0 8.62633V11.4614C1.84973 12.2394 5.18617 12.7753 8.64362 12.7753C13.3285 12.7753 15.2992 12.0665 16.1981 11.1676C16.8723 10.4934 17.0625 9.59441 17.0625 8.6609C17.0625 7.79654 16.7859 6.98404 16.2846 6.48271C15.3165 5.51463 13.3112 5.11702 8.67819 5.0133C5.53192 4.94415 4.16622 4.84043 3.80319 4.47739C3.66489 4.3391 3.59574 4.16622 3.59574 3.9242C3.59574 3.69947 3.68218 3.5266 3.82048 3.3883C4.2008 3.00798 5.46277 2.83511 8.38431 2.83511C11.0293 2.83511 14.2274 3.40558 16.0598 4.18351V1.3484C14.4521 0.708776 11.3923 0.224733 8.34973 0.224733C4.26995 0.224733 2.26463 0.726064 1.26197 1.72872C0.50133 2.48936 0.328457 3.31915 0.328457 4.23537Z" fill="#222126"/>
<path d="M38.1074 0.449467H19.3162V3.18085H27.009V12.5505H30.4492V3.18085H38.1074V0.449467Z" fill="#222126"/>
<path d="M35.691 12.5505H39.4942L41.1365 10.1995H51.8891L53.5314 12.5505H57.5075L48.812 0.380318H44.3865L35.691 12.5505ZM46.5128 2.52394L50.1258 7.69282H42.8825L46.5128 2.52394Z" fill="#222126"/>
<path d="M73.8792 0.449467H55.0879V3.18085H62.7808V12.5505H66.2209V3.18085H73.8792V0.449467Z" fill="#222126"/>
<path d="M80.2273 5.1516V3.19814H93.1409V0.449467H76.8563V12.5505H93.1409V9.80186H80.2273V7.72739H92.8125V5.1516H80.2273Z" fill="#222126"/>
<path d="M105.988 0.103723C101.494 0.103723 99.2291 1.08909 98.0709 2.24734C96.9991 3.31915 96.4977 4.70213 96.4977 6.5C96.4977 8.28058 96.9991 9.68085 98.0709 10.7527C99.2118 11.8936 101.494 12.8963 105.988 12.8963C110.5 12.8963 112.782 11.8936 113.923 10.7354C114.995 9.68085 115.496 8.28058 115.496 6.5C115.496 4.70213 114.995 3.30186 113.941 2.24734C112.782 1.08909 110.5 0.103723 105.988 0.103723ZM105.988 1.60771C109.601 1.60771 111.503 2.35106 112.419 3.26729C113.18 4.02793 113.612 4.97872 113.612 6.5C113.612 8.02128 113.18 8.98936 112.437 9.73271C111.52 10.6489 109.601 11.3923 105.988 11.3923C102.393 11.3923 100.457 10.6144 99.5749 9.73271C98.7969 8.95479 98.382 8.02128 98.382 6.5C98.382 4.97872 98.7797 4.02793 99.5576 3.25C100.474 2.33378 102.393 1.60771 105.988 1.60771Z" fill="#222126"/>
<path d="M121.48 5.89495V2.00532H134.792V0.449467H119.613V12.5505H121.48V7.41622H134.55V5.89495H121.48Z" fill="#222126"/>
<path d="M137.649 6.5C137.649 8.22872 138.133 9.68085 139.274 10.8218C140.45 11.9973 142.611 13 147.728 13C152.845 13 155.006 11.9973 156.181 10.8218C157.322 9.68085 157.806 8.22872 157.806 6.5C157.806 4.77128 157.322 3.31915 156.181 2.17819C155.006 1.00266 152.845 0 147.728 0C142.611 0 140.45 1.00266 139.274 2.17819C138.133 3.31915 137.649 4.77128 137.649 6.5ZM154.297 6.5C154.297 7.79654 153.899 8.55718 153.381 9.0758C152.672 9.78457 151.185 10.3896 147.728 10.3896C144.27 10.3896 142.784 9.78457 142.075 9.0758C141.556 8.55718 141.159 7.79654 141.159 6.5C141.159 5.20346 141.556 4.44282 142.075 3.9242C142.784 3.21543 144.27 2.61037 147.728 2.61037C151.185 2.61037 152.672 3.21543 153.381 3.9242C153.899 4.44282 154.297 5.20346 154.297 6.5Z" fill="#222126"/>
<path d="M166.352 0.449467H161.132V12.5505H164.468V3.02527L174.668 12.5505H179.715V0.449467H176.379V9.80186L166.352 0.449467Z" fill="#222126"/>
<path d="M187.091 5.1516V3.19814H200.004V0.449467H183.72V12.5505H200.004V9.80186H187.091V7.72739H199.676V5.1516H187.091Z" fill="#222126"/>
</svg>
